<svg width="70" height="70" viewBox="0 0 70 70" fill="none" xmlns="http://www.w3.org/2000/svg">
<rect x="0.5" y="0.5" width="69" height="69" rx="34.5" fill="white" stroke="#EBF0FF"/>
<path d="M31.625 26C31.625 26 32.75 28.25 35 28.25C37.25 28.25 38.375 26 38.375 26L44 27.125L42.875 31.625H40.625C40.625 31.625 41.75 33.875 41.75 35C41.75 35.9889 40.8331 37.7315 40.625 39.5C40.2976 42.2844 40.625 44 40.625 44H29.375C29.375 44 29.6979 42.2349 29.375 39.5C29.1556 37.6438 28.25 35.9101 28.25 35C28.25 33.875 29.375 31.625 29.375 31.625H27.125L26 27.125L31.625 26Z" stroke="#40BFFF" stroke-width="2" stroke-linecap="round" stroke-linejoin="round"/>
</svg>
