<svg width="54" height="21" viewBox="0 0 54 21" fill="none" xmlns="http://www.w3.org/2000/svg">
<path d="M16.2841 16.2563C15.3173 16.2563 14.4945 15.9951 13.8158 15.4727C13.1371 14.9453 12.7196 14.2471 12.5634 13.3779H14.4457C14.5677 13.7783 14.7924 14.0957 15.1195 14.3301C15.4515 14.5596 15.8446 14.6743 16.2987 14.6743C17.0702 14.6743 17.6732 14.335 18.1078 13.6562C18.5424 12.9727 18.7596 12.0254 18.7596 10.8145H18.6937H18.6571H18.6351C18.3861 11.3174 18.0223 11.708 17.5438 11.9863C17.0653 12.2598 16.516 12.3965 15.8959 12.3965C14.89 12.3965 14.0575 12.0645 13.3983 11.4004C12.744 10.7363 12.4169 9.89648 12.4169 8.88086C12.4169 7.79688 12.7831 6.9082 13.5155 6.21484C14.2528 5.5166 15.1952 5.16748 16.3427 5.16748C17.1141 5.16748 17.7977 5.3457 18.3934 5.70215C18.9891 6.05859 19.4652 6.57617 19.8217 7.25488C20.3197 8.13867 20.5687 9.25195 20.5687 10.5947C20.5687 12.3721 20.1903 13.7612 19.4335 14.7622C18.6766 15.7583 17.6268 16.2563 16.2841 16.2563ZM14.8558 10.3164C15.2465 10.7021 15.7445 10.895 16.35 10.895C16.9554 10.895 17.4559 10.7021 17.8514 10.3164C18.2469 9.93066 18.4447 9.44238 18.4447 8.85156C18.4447 8.25586 18.2445 7.75537 17.8441 7.3501C17.4437 6.94482 16.9481 6.74219 16.3573 6.74219C15.7665 6.74219 15.2709 6.94238 14.8705 7.34277C14.4701 7.73828 14.2699 8.23145 14.2699 8.82227C14.2699 9.42773 14.4652 9.92578 14.8558 10.3164Z" fill="white"/>
<path d="M23.5866 14.8794C23.2448 14.8794 22.964 14.7695 22.7443 14.5498C22.5246 14.3301 22.4147 14.0542 22.4147 13.7222C22.4147 13.3853 22.5246 13.1094 22.7443 12.8945C22.964 12.6748 23.2448 12.5649 23.5866 12.5649C23.9333 12.5649 24.214 12.6748 24.4289 12.8945C24.6486 13.1094 24.7585 13.3853 24.7585 13.7222C24.7585 14.0542 24.6486 14.3301 24.4289 14.5498C24.214 14.7695 23.9333 14.8794 23.5866 14.8794ZM23.5866 9.38623C23.2448 9.38623 22.964 9.27881 22.7443 9.06396C22.5246 8.84424 22.4147 8.56836 22.4147 8.23633C22.4147 7.89941 22.5246 7.62354 22.7443 7.40869C22.964 7.18896 23.2448 7.0791 23.5866 7.0791C23.9333 7.0791 24.214 7.18896 24.4289 7.40869C24.6486 7.62354 24.7585 7.89941 24.7585 8.23633C24.7585 8.56836 24.6486 8.84424 24.4289 9.06396C24.214 9.27881 23.9333 9.38623 23.5866 9.38623Z" fill="white"/>
<path d="M31.7607 16V14.0298H26.5971V12.3452C27.4565 10.7632 28.8921 8.4585 30.9038 5.43115H33.5698V12.4331H34.998V14.0298H33.5698V16H31.7607ZM28.3476 12.3672V12.4771H31.79V6.96924H31.6875C30.5449 8.65869 29.4316 10.458 28.3476 12.3672Z" fill="white"/>
<path d="M39.0266 16V7.33545H38.9021L36.2727 9.18115V7.36475L39.034 5.43115H40.9163V16H39.0266Z" fill="white"/>
</svg>
