<svg width="24" height="24" viewBox="0 0 24 24" fill="none" xmlns="http://www.w3.org/2000/svg">
<path d="M9.34954 6.8835L9.35204 6.8845C9.40404 6.663 9.59304 6.5 9.82954 6.5H16.5655C16.574 6.5 16.5825 6.4965 16.591 6.497C16.4475 4.1075 14.443 3 12.6745 3H5.93854C5.70154 3 5.51254 3.1675 5.46104 3.3885L5.45854 3.3875L2.51404 16.9065L2.52054 16.907C2.51354 16.939 2.50104 16.9695 2.50104 17.004C2.50104 17.2805 2.72454 17.4995 3.00104 17.4995H7.03654L9.34954 6.8835Z" fill="#1565C0"/>
<path d="M16.5919 6.49695C16.6184 6.93495 16.5894 7.41145 16.4774 7.93795C15.8369 10.9354 13.5214 12.4954 10.6599 12.4954C10.6599 12.4954 8.92493 12.4954 8.50343 12.4954C8.24293 12.4954 8.11993 12.6484 8.06343 12.7654L7.19343 16.79L7.04093 17.5044H7.03793L6.40643 20.4025L6.41293 20.403C6.40593 20.435 6.39343 20.4655 6.39343 20.5C6.39343 20.7765 6.61693 21 6.89343 21H10.5599L10.5664 20.995C10.8024 20.9915 10.9899 20.823 11.0389 20.601L11.0479 20.5935L11.9539 16.3854C11.9539 16.3854 12.0169 15.9839 12.4389 15.9839C12.8609 15.9839 14.5279 15.9839 14.5279 15.9839C17.3894 15.9839 19.7284 14.4309 20.3694 11.4329C21.0904 8.05295 18.6794 6.50945 16.5919 6.49695Z" fill="#039BE5"/>
<path d="M9.83 6.49975C9.593 6.49975 9.404 6.66275 9.3525 6.88425L9.35 6.88325L8.0625 12.7658C8.119 12.6488 8.242 12.4958 8.5025 12.4958C8.9245 12.4958 10.62 12.4958 10.62 12.4958C13.4815 12.4958 15.836 10.9358 16.4765 7.93825C16.589 7.41175 16.6175 6.93525 16.591 6.49725C16.583 6.49625 16.574 6.49975 16.566 6.49975H9.83Z" fill="#283593"/>
</svg>
