<svg width="16" height="11" viewBox="0 0 16 11" fill="none" xmlns="http://www.w3.org/2000/svg">
<path fill-rule="evenodd" clip-rule="evenodd" d="M7.66075 2.28453C9.88365 2.28462 12.0215 3.13875 13.6326 4.67038C13.7539 4.78863 13.9478 4.78714 14.0673 4.66704L15.2269 3.49668C15.2874 3.43577 15.3212 3.35325 15.3207 3.2674C15.3202 3.18155 15.2855 3.09944 15.2243 3.03924C10.9958 -1.01308 4.325 -1.01308 0.0965769 3.03924C0.0353252 3.0994 0.000571802 3.18148 6.99282e-06 3.26733C-0.000557817 3.35319 0.0331126 3.43572 0.0935674 3.49668L1.25356 4.66704C1.37296 4.78732 1.56702 4.78881 1.68826 4.67038C3.29949 3.13865 5.43763 2.28452 7.66075 2.28453ZM7.66075 6.09219C8.88209 6.09212 10.0598 6.54608 10.9652 7.36587C11.0876 7.48222 11.2805 7.4797 11.3999 7.36019L12.5582 6.18984C12.6192 6.12845 12.653 6.04517 12.6522 5.95863C12.6513 5.87209 12.6157 5.78952 12.5535 5.72938C9.79662 3.16492 5.52722 3.16492 2.77034 5.72938C2.70806 5.78952 2.67253 5.87213 2.67172 5.9587C2.6709 6.04526 2.70486 6.12854 2.76599 6.18984L3.92397 7.36019C4.04334 7.4797 4.23623 7.48222 4.35868 7.36587C5.2634 6.54662 6.44022 6.0927 7.66075 6.09219ZM9.98106 8.65409C9.98283 8.74087 9.94871 8.82453 9.88677 8.88533L7.88312 10.9074C7.82438 10.9668 7.7443 11.0002 7.66075 11.0002C7.5772 11.0002 7.49712 10.9668 7.43838 10.9074L5.4344 8.88533C5.37249 8.82449 5.33844 8.7408 5.34027 8.65401C5.34211 8.56723 5.37967 8.48506 5.4441 8.42689C6.7237 7.34459 8.5978 7.34459 9.8774 8.42689C9.94178 8.4851 9.97928 8.56731 9.98106 8.65409Z" fill="white"/>
</svg>
