<svg width="24" height="24" viewBox="0 0 24 24" fill="none" xmlns="http://www.w3.org/2000/svg">
<path d="M9.3496 6.8835L9.3521 6.8845C9.4041 6.663 9.5931 6.5 9.8296 6.5H16.5656C16.5741 6.5 16.5826 6.4965 16.5911 6.497C16.4476 4.1075 14.4431 3 12.6746 3H5.9386C5.7016 3 5.5126 3.1675 5.4611 3.3885L5.4586 3.3875L2.5141 16.9065L2.5206 16.907C2.5136 16.939 2.5011 16.9695 2.5011 17.004C2.5011 17.2805 2.7246 17.4995 3.0011 17.4995H7.0366L9.3496 6.8835Z" fill="#1565C0"/>
<path d="M16.5919 6.49707C16.6184 6.93507 16.5894 7.41157 16.4774 7.93807C15.8369 10.9356 13.5214 12.4956 10.6599 12.4956C10.6599 12.4956 8.92493 12.4956 8.50343 12.4956C8.24293 12.4956 8.11993 12.6486 8.06343 12.7656L7.19343 16.7901L7.04093 17.5046H7.03793L6.40643 20.4026L6.41293 20.4031C6.40593 20.4351 6.39343 20.4656 6.39343 20.5001C6.39343 20.7766 6.61693 21.0001 6.89343 21.0001H10.5599L10.5664 20.9951C10.8024 20.9916 10.9899 20.8231 11.0389 20.6011L11.0479 20.5936L11.9539 16.3856C11.9539 16.3856 12.0169 15.9841 12.4389 15.9841C12.8609 15.9841 14.5279 15.9841 14.5279 15.9841C17.3894 15.9841 19.7284 14.4311 20.3694 11.4331C21.0904 8.05307 18.6794 6.50957 16.5919 6.49707Z" fill="#039BE5"/>
<path d="M9.83 6.49975C9.593 6.49975 9.404 6.66275 9.3525 6.88425L9.35 6.88325L8.0625 12.7658C8.119 12.6488 8.242 12.4958 8.5025 12.4958C8.9245 12.4958 10.62 12.4958 10.62 12.4958C13.4815 12.4958 15.836 10.9358 16.4765 7.93825C16.589 7.41175 16.6175 6.93525 16.591 6.49725C16.583 6.49625 16.574 6.49975 16.566 6.49975H9.83Z" fill="#283593"/>
</svg>
