<svg width="17" height="11" viewBox="0 0 17 11" fill="none" xmlns="http://www.w3.org/2000/svg">
<path fill-rule="evenodd" clip-rule="evenodd" d="M16 0H15C14.4477 0 14 0.447715 14 1V9.66667C14 10.219 14.4477 10.6667 15 10.6667H16C16.5523 10.6667 17 10.219 17 9.66667V1C17 0.447715 16.5523 0 16 0ZM10.3333 2.33333H11.3333C11.8856 2.33333 12.3333 2.78105 12.3333 3.33333V9.66667C12.3333 10.219 11.8856 10.6667 11.3333 10.6667H10.3333C9.78105 10.6667 9.33333 10.219 9.33333 9.66667V3.33333C9.33333 2.78105 9.78105 2.33333 10.3333 2.33333ZM6.66667 4.66667H5.66667C5.11438 4.66667 4.66667 5.11438 4.66667 5.66667V9.66667C4.66667 10.219 5.11438 10.6667 5.66667 10.6667H6.66667C7.21895 10.6667 7.66667 10.219 7.66667 9.66667V5.66667C7.66667 5.11438 7.21895 4.66667 6.66667 4.66667ZM2 6.66667H1C0.447715 6.66667 0 7.11438 0 7.66667V9.66667C0 10.219 0.447715 10.6667 1 10.6667H2C2.55228 10.6667 3 10.219 3 9.66667V7.66667C3 7.11438 2.55228 6.66667 2 6.66667Z" fill="white"/>
</svg>
