<svg width="20" height="20" viewBox="0 0 20 20" fill="none" xmlns="http://www.w3.org/2000/svg">
<g opacity="0.5">
<path fill-rule="evenodd" clip-rule="evenodd" d="M14.7144 5.28616C15.0399 5.61159 15.0399 6.13923 14.7144 6.46467L6.46486 14.7142C6.13942 15.0397 5.61179 15.0397 5.28635 14.7142C4.96091 14.3888 4.96091 13.8612 5.28635 13.5357L13.5359 5.28616C13.8614 4.96072 14.389 4.96072 14.7144 5.28616Z" fill="#223263"/>
<path fill-rule="evenodd" clip-rule="evenodd" d="M5.28556 5.28616C5.611 4.96072 6.13864 4.96072 6.46407 5.28616L14.7137 13.5357C15.0391 13.8612 15.0391 14.3888 14.7137 14.7142C14.3882 15.0397 13.8606 15.0397 13.5351 14.7142L5.28556 6.46467C4.96012 6.13923 4.96012 5.61159 5.28556 5.28616Z" fill="#223263"/>
</g>
</svg>
