<svg width="25" height="12" viewBox="0 0 25 12" fill="none" xmlns="http://www.w3.org/2000/svg">
<path opacity="0.35" fill-rule="evenodd" clip-rule="evenodd" d="M19.8674 1.02762H2.74033C1.79442 1.02762 1.02762 1.79442 1.02762 2.74032V8.90606C1.02762 9.85196 1.79443 10.6188 2.74033 10.6188H19.8674C20.8133 10.6188 21.5801 9.85196 21.5801 8.90606V2.74033C21.5801 1.79443 20.8133 1.02762 19.8674 1.02762ZM2.74033 0C1.22689 0 0 1.22688 0 2.74032V8.90606C0 10.4195 1.22688 11.6464 2.74033 11.6464H19.8674C21.3808 11.6464 22.6077 10.4195 22.6077 8.90606V2.74033C22.6077 1.22689 21.3808 0 19.8674 0H2.74033Z" fill="white"/>
<path opacity="0.4" d="M23.6353 3.76778V7.87827C24.4623 7.53014 25 6.72028 25 5.82303C25 4.92577 24.4623 4.11592 23.6353 3.76778Z" fill="white"/>
<path d="M2.05524 3.42541C2.05524 2.66869 2.66869 2.05524 3.42541 2.05524H19.1823C19.939 2.05524 20.5524 2.66869 20.5524 3.42541V8.22098C20.5524 8.9777 19.939 9.59114 19.1823 9.59114H3.42541C2.66869 9.59114 2.05524 8.9777 2.05524 8.22098V3.42541Z" fill="white"/>
</svg>
